<svg width="123" height="50" viewBox="15 15 123 50" fill="none" xmlns="http://www.w3.org/2000/svg">
<path d="M98.3081 19.4157C95.9497 18.7865 93.2479 19.7453 91.8 21.7078C90.994 22.8164 90.576 24.1497 90.4417 25.513C90.3372 26.5917 90.4417 27.7452 90.9641 28.6741C91.3224 29.3183 91.8448 29.8426 92.4269 30.2771C94.0092 31.4606 96.0542 31.9849 98.0096 31.7303C100.935 31.3557 104.756 28.764 103.816 25.3482C103.159 22.9662 100.711 20.0599 98.3081 19.4157Z" fill="#1EA765"/>
<path d="M96.8896 24.2395C95.9044 24.2395 95.0984 23.4306 95.0984 22.4418C95.0984 21.453 95.9044 20.644 96.8896 20.644C97.8748 20.644 98.6808 21.453 98.6808 22.4418C98.6808 23.4455 97.8748 24.2395 96.8896 24.2395Z" fill="#163A5F"/>
<path d="M96.6362 22.4865C96.3078 22.1719 96.3078 21.6476 96.6362 21.318C96.9646 21.0034 97.487 21.0034 97.8005 21.318C98.1289 21.6326 98.1289 22.1569 97.8005 22.4865C97.4721 22.8011 96.9497 22.8011 96.6362 22.4865Z" fill="white"/>
<path d="M84.7246 20.5243C83.5753 21.0786 82.5155 21.8427 81.6497 22.7865C81.4258 23.0262 81.2169 23.2809 80.9034 23.4007C80.6049 23.5206 80.2018 23.4457 80.0675 23.146C79.9779 22.9513 80.0227 22.7415 80.0824 22.5318C80.5302 21.0636 81.6945 19.9251 82.8887 18.9662C84.859 17.3932 87.4115 19.2659 84.7246 20.5243Z" fill="#21BF73"/>
<path d="M95.6364 17.2734C96.9351 17.4082 98.1889 17.7977 99.3382 18.412C99.6218 18.5618 99.9204 18.7416 100.249 18.7565C100.577 18.7715 100.935 18.5618 100.98 18.2322C100.995 18.0225 100.891 17.8277 100.756 17.6479C99.8308 16.3745 98.3382 15.6704 96.8753 15.161C94.4722 14.2921 92.6213 16.9438 95.6364 17.2734Z" fill="#21BF73"/>
<path d="M98.0842 34.8464C98.2931 34.8015 118.131 30.5168 118.131 30.5168C118.131 30.5168 125.803 30.5168 129.386 30.8614C134.565 31.3558 135.386 32.5693 135.207 33.0637C134.521 35.0112 118.176 40.1498 118.176 40.1498L95.5615 39.925L98.0842 34.8464Z" fill="#FD5E53"/>
<path d="M127.714 33.8727C127.505 33.7528 127.221 33.6629 127.057 33.8277C126.997 33.8876 126.967 33.9775 126.952 34.0674C126.729 34.8914 126.654 35.7453 126.743 36.5693C126.758 36.794 126.818 37.0337 126.997 37.1686C127.146 37.2584 127.341 37.2584 127.505 37.2285C128.176 37.1386 128.818 36.9438 129.43 36.6592C130.311 36.2397 128.191 34.1723 127.714 33.8727Z" fill="white"/>
<path d="M105.294 37.3186C105.503 37.4384 105.801 37.5133 105.951 37.3335C106.01 37.2586 106.025 37.1837 106.055 37.0938C106.234 36.2699 106.264 35.4009 106.145 34.577C106.115 34.3523 106.055 34.1126 105.861 33.9927C105.712 33.9028 105.518 33.9178 105.354 33.9627C104.697 34.0826 104.055 34.3073 103.458 34.6219C102.592 35.0564 104.801 37.0489 105.294 37.3186Z" fill="white"/>
<path d="M114.011 35.5205C114.22 35.6403 114.519 35.7152 114.668 35.5354C114.728 35.4605 114.743 35.3856 114.773 35.2957C114.952 34.4718 114.982 33.6029 114.862 32.7789C114.832 32.5542 114.773 32.3145 114.579 32.1946C114.429 32.1047 114.235 32.1197 114.071 32.1646C113.414 32.2845 112.772 32.5092 112.175 32.8238C111.31 33.2733 113.519 35.2508 114.011 35.5205Z" fill="white"/>
<path d="M110.071 36.8688C109.892 36.704 109.638 36.5542 109.444 36.689C109.369 36.7339 109.325 36.8238 109.295 36.8987C108.907 37.6478 108.668 38.4718 108.563 39.3257C108.533 39.5504 108.533 39.8051 108.698 39.9549C108.817 40.0748 109.011 40.1047 109.19 40.1197C109.862 40.1647 110.534 40.1197 111.19 39.9549C112.116 39.7302 110.489 37.2583 110.071 36.8688Z" fill="white"/>
<path d="M118.952 36.2096C118.743 36.0897 118.459 35.9998 118.295 36.1646C118.236 36.2246 118.206 36.3145 118.191 36.4043C117.967 37.2283 117.892 38.0823 117.982 38.9062C117.997 39.1309 118.056 39.3706 118.236 39.5055C118.385 39.5954 118.579 39.5954 118.743 39.5654C119.415 39.4755 120.057 39.2808 120.669 38.9961C121.564 38.6066 119.445 36.5092 118.952 36.2096Z" fill="white"/>
<path d="M121.474 33.5876C121.683 33.7074 121.982 33.7823 122.131 33.6026C122.191 33.5426 122.206 33.4528 122.236 33.3629C122.415 32.5389 122.445 31.67 122.325 30.846C122.295 30.6213 122.236 30.3816 122.042 30.2617C121.892 30.1719 121.698 30.1868 121.534 30.2318C120.877 30.3516 120.236 30.5764 119.638 30.891C118.773 31.3254 120.982 33.3179 121.474 33.5876Z" fill="white"/>
<path d="M80.8432 32.135C80.6342 28.8092 81.0372 24.6744 84.142 22.7418C86.0974 21.5283 88.6648 21.2736 90.6949 22.1275C92.1279 22.7268 93.3071 24.0901 94.0684 25.738C98.0837 25.004 101.129 24.8991 101.129 24.8991C101.129 24.8991 114.876 23.7755 123.041 23.1013C123.206 22.1425 124.25 21.1687 126.788 20.3747C127.997 19.9852 129.102 20.0751 130.087 20.4197C131.102 20.7792 132.027 22.1725 132.908 25.0639C133.505 27.0264 125.101 30.4272 115.981 33.0489C107.667 35.4459 99.0092 35.1313 98.5763 35.4309C98.1882 35.7006 103.965 40.7493 115.981 39.2362C128.997 37.5882 135.177 33.0489 135.177 33.0489C135.177 33.0489 135.475 37.1538 134.072 38.1575C131.654 39.8804 129.251 41.8429 122.594 44.0901C121.235 44.5545 118.862 45.2886 115.817 45.783C115.563 45.8279 115.369 45.8579 115.22 45.8729C115.16 45.768 115.07 45.6032 114.891 45.4684C114.578 45.2287 114.249 45.1987 114.13 45.1987C113.623 45.1987 113.115 45.1987 112.593 45.1987C112.593 44.7193 112.593 44.2399 112.608 43.7455C112.608 43.6556 112.593 43.2362 112.264 42.9066C111.891 42.5171 111.413 42.532 111.339 42.532C110.249 42.532 109.144 42.532 108.055 42.532C107.98 42.532 107.488 42.562 107.129 42.9665C106.831 43.3111 106.831 43.7006 106.831 43.8054C106.831 44.2699 106.831 44.7343 106.831 45.1987C106.607 45.1987 106.383 45.1987 106.159 45.1987C106.055 45.1987 105.696 45.2137 105.383 45.4983C104.98 45.8429 104.965 46.3523 104.965 46.4272C104.965 46.6669 104.965 46.8916 104.965 47.1313C104.652 46.7418 103.219 44.8691 99.5913 44.974C98.5464 45.0039 96.8 45.1388 94.755 46.0077C94.7251 45.9178 94.6057 45.5882 94.2624 45.3785C94.0087 45.2137 93.74 45.1987 93.6355 45.1987C93.0533 45.1837 90.068 45.1687 85.978 45.1987C84.754 45.1987 84.1271 45.5732 83.336 46.0377C82.2015 46.6968 81.5 47.5657 81.1268 48.135C81.1268 48.0451 81.1268 47.9553 81.1268 47.8504C81.1268 44.165 81.1119 40.4796 81.1119 36.7792C81.082 36.4796 81.0522 35.9702 81.0074 35.326C80.9029 33.5882 80.8581 32.2549 80.8432 32.135Z" fill="#21BF73"/>
<path d="M105.98 24.5243C105.98 24.5243 105.07 25.573 105.055 26.2022C105.055 26.5019 105.159 26.8614 105.339 27.0861C105.518 27.3109 105.816 27.4607 106.115 27.4007C106.398 27.3408 106.592 27.1011 106.697 26.8165C106.801 26.5468 106.727 26.0075 106.786 25.7228C106.98 24.794 107.682 24.3745 107.682 24.3745L105.98 24.5243Z" fill="#52DA98"/>
<path d="M111.354 24.075C111.354 24.075 110.877 25.3184 110.921 25.9476C110.936 26.2622 111.175 26.8615 111.459 26.9813C111.578 27.0413 111.713 27.0413 111.832 27.0113C111.936 26.9963 112.056 26.9813 112.145 26.9214C112.339 26.8165 112.429 26.5768 112.474 26.3521C112.504 26.1274 112.384 25.4083 112.384 25.1686C112.399 24.5544 113.071 23.9102 113.071 23.9102L111.354 24.075Z" fill="#52DA98"/>
<path d="M116.4 23.655C116.057 24.2093 115.803 24.449 115.698 25.0782C115.639 25.4677 115.743 26.2168 116.027 26.4865C116.206 26.6513 116.489 26.6962 116.713 26.6063C116.937 26.5164 117.116 26.3067 117.206 26.082C117.325 25.7524 117.31 25.3928 117.325 25.0483C117.355 24.6438 117.445 24.2393 117.728 23.9546C117.893 23.7899 118.34 23.4902 118.34 23.4902L116.4 23.655Z" fill="#52DA98"/>
<path d="M87.6206 27.97C86.6354 27.97 85.8293 27.161 85.8293 26.1723C85.8293 25.1835 86.6354 24.3745 87.6206 24.3745C88.6057 24.3745 89.4118 25.1835 89.4118 26.1723C89.4118 27.176 88.6207 27.97 87.6206 27.97Z" fill="#163A5F"/>
<path d="M87.3667 26.217C87.0383 25.9024 87.0383 25.378 87.3667 25.0485C87.6951 24.7338 88.2175 24.7338 88.531 25.0485C88.8594 25.3631 88.8594 25.8874 88.531 26.217C88.2175 26.5316 87.6951 26.5316 87.3667 26.217Z" fill="white"/>
<path d="M127.445 23.5958C127.759 24.1501 127.908 24.7793 127.863 25.4085C127.848 25.7381 127.699 26.1426 127.37 26.1726C127.057 26.2025 126.848 25.8729 126.729 25.5883C126.549 25.1988 126.4 24.8093 126.251 24.4048C125.878 23.3711 126.758 22.3823 127.445 23.5958Z" fill="#163A5F"/>
<path d="M128.863 23.356C128.908 23.9852 129.117 24.5994 129.49 25.1088C129.684 25.3784 130.028 25.6331 130.311 25.4833C130.58 25.3335 130.58 24.944 130.535 24.6443C130.475 24.2249 130.401 23.8054 130.296 23.4009C130.058 22.3073 128.774 21.9627 128.863 23.356Z" fill="#163A5F"/>
<path d="M80.7542 61.0339C80.7542 60.1201 81.0825 59.356 81.7244 58.7418C81.2467 58.2774 81.0228 57.6781 81.0228 56.959C81.0228 55.8654 81.5303 54.9815 82.5304 54.2923C81.8737 53.4834 81.5453 52.4796 81.5453 51.3111C81.5453 49.8129 82.0379 48.6144 83.023 47.7305C84.0082 46.8467 85.3516 46.3972 87.0383 46.3972H93.6659V49.0639H91.6507C92.2329 49.738 92.5314 50.577 92.5314 51.5658C92.5314 52.944 92.0239 54.0377 91.0238 54.8616C90.0237 55.6856 88.6952 56.1051 87.0383 56.1051C86.1726 56.1051 85.3815 55.9852 84.6799 55.7455C84.3515 55.9403 84.1873 56.195 84.1873 56.4946C84.1873 56.8392 84.4262 57.0789 84.8889 57.2287C85.3815 57.3635 86.3219 57.4534 87.725 57.5133C89.755 57.5882 91.2477 57.8879 92.203 58.4422C93.1584 58.9965 93.636 59.8204 93.636 60.9141C93.636 62.1126 93.0837 63.0564 91.9791 63.7305C90.8745 64.4047 89.352 64.7343 87.4115 64.7343C85.2322 64.7343 83.5903 64.4197 82.4558 63.7905C81.3214 63.1463 80.7542 62.2324 80.7542 61.0339ZM84.7844 51.3111C84.7844 51.9553 84.9934 52.4796 85.4113 52.8991C85.8293 53.3186 86.3517 53.5283 86.9936 53.5283C87.6503 53.5283 88.1877 53.3186 88.6057 52.8991C89.0236 52.4796 89.2326 51.9553 89.2326 51.3111C89.2326 50.6819 89.0236 50.1575 88.6057 49.738C88.1877 49.3186 87.6503 49.1088 86.9936 49.1088C86.3517 49.1088 85.8143 49.3186 85.4113 49.738C84.9934 50.1575 84.7844 50.6819 84.7844 51.3111ZM83.7097 60.7043C83.7097 61.6032 84.874 62.0526 87.2025 62.0526C89.3371 62.0526 90.3969 61.7231 90.3969 61.0639C90.3969 60.7643 90.173 60.5395 89.7252 60.4047C89.2774 60.2549 88.5161 60.18 87.4563 60.165C86.0681 60.1201 84.9486 60.0152 84.0828 59.8204C83.844 60.1201 83.7097 60.4047 83.7097 60.7043Z" fill="#21BF73"/>
<path d="M95.5018 51.4454C96.3675 50.7862 97.5468 50.4566 99.0394 50.4566C99.9052 50.4566 100.756 50.5765 101.637 50.8012V50.5165C101.637 49.9323 101.443 49.4978 101.055 49.2281C100.681 48.9585 100.084 48.8236 99.2484 48.8236C98.2334 48.8236 97.0691 49.1083 95.7705 49.6626L94.9346 47.2356C96.5019 46.5165 98.0991 46.157 99.7261 46.157C101.368 46.157 102.637 46.5465 103.517 47.3105C104.398 48.0896 104.846 49.1682 104.846 50.5765V57.4678H101.816L101.756 56.1195C100.756 57.1233 99.5022 57.6177 97.9796 57.6177C96.8303 57.6177 95.9197 57.303 95.2182 56.6738C94.5316 56.0296 94.1882 55.1907 94.1882 54.172C94.1882 53.0034 94.636 52.1045 95.5018 51.4454ZM97.5617 53.9922C97.5617 54.7862 98.0692 55.1907 99.0693 55.1907C99.7858 55.1907 100.383 54.9959 100.875 54.5914C101.368 54.172 101.637 53.6626 101.696 53.0484C100.846 52.8087 100.129 52.6888 99.5022 52.6888C98.2035 52.6888 97.5617 53.1233 97.5617 53.9922Z" fill="#21BF73"/>
<path d="M106.175 49.1686V46.3971H107.996L108.07 43.7454H111.444V46.412H114.19V49.1836H111.444V53.0937C111.444 54.0525 111.862 54.5319 112.683 54.5319C113.086 54.5319 113.533 54.427 114.011 54.2323L114.757 57.1087C113.892 57.4982 112.981 57.6929 112.011 57.6929C110.668 57.6929 109.653 57.3334 108.966 56.6143C108.279 55.8802 107.936 54.8315 107.936 53.4383V49.1985H106.175V49.1686Z" fill="#21BF73"/>
<path d="M117.161 47.7307C118.295 46.652 119.773 46.1277 121.624 46.1277C123.46 46.1277 124.938 46.667 126.072 47.7307C127.222 48.8093 127.789 50.2026 127.789 51.9404C127.789 53.6633 127.222 55.0715 126.072 56.1502C124.938 57.2288 123.46 57.7532 121.624 57.7532C119.773 57.7532 118.28 57.2138 117.146 56.1502C116.012 55.0715 115.444 53.6782 115.444 51.9404C115.444 50.2026 116.012 48.8093 117.161 47.7307ZM119.654 53.9779C120.161 54.4872 120.818 54.7569 121.624 54.7569C122.43 54.7569 123.072 54.5022 123.579 53.9779C124.087 53.4685 124.326 52.7794 124.326 51.9404C124.326 51.1165 124.072 50.4423 123.579 49.9179C123.072 49.3936 122.43 49.1239 121.624 49.1239C120.818 49.1239 120.161 49.3936 119.654 49.9179C119.146 50.4273 118.907 51.1015 118.907 51.9404C118.892 52.7794 119.146 53.4535 119.654 53.9779Z" fill="#21BF73"/>
<path d="M133.072 46.4115L133.117 47.9097C133.968 46.816 135.087 46.2617 136.505 46.2617C137.043 46.2617 137.565 46.3516 138.073 46.5164L137.297 49.7524C136.819 49.6025 136.371 49.5426 135.923 49.5426C134.222 49.5426 133.371 50.5763 133.371 52.6587V57.4827H129.878V46.4115H133.072V46.4115Z" fill="#21BF73"/>
<path d="M14.9268 56.1949L16.1657 53.8129C17.4792 54.5919 18.7182 54.9664 19.8526 54.9664C20.8229 54.9664 21.3154 54.6968 21.3154 54.1724C21.3154 53.723 20.7034 53.3634 19.4645 53.0788C18.0614 52.7492 17.0464 52.2998 16.3896 51.7305C15.7477 51.1612 15.4193 50.4121 15.4193 49.4833C15.4193 48.4795 15.7925 47.6855 16.5389 47.1013C17.3001 46.502 18.3599 46.2024 19.7332 46.2024C21.4199 46.2024 22.9872 46.6518 24.4053 47.5357L23.1664 49.8279C22.7484 49.5432 22.2409 49.3035 21.614 49.1237C21.002 48.944 20.4348 48.8391 19.9123 48.8391C19.0615 48.8391 18.6435 49.0638 18.6435 49.5282C18.6435 49.7679 18.7779 49.9777 19.0316 50.1275C19.3003 50.2773 19.8078 50.4421 20.5392 50.6219C23.2559 51.2361 24.6143 52.4196 24.6143 54.1575C24.6143 55.2361 24.1814 56.09 23.3306 56.7342C22.4648 57.3634 21.3154 57.6781 19.8825 57.6781C18.1211 57.6781 16.4642 57.1837 14.9268 56.1949Z" fill="#163A5F"/>
<path d="M25.3157 49.1686V46.3971H27.1367L27.1965 43.7454H30.5699V46.3971H33.3164V49.1686H30.5699V53.0637C30.5699 54.0225 30.9879 54.5019 31.8088 54.5019C32.2119 54.5019 32.6597 54.3971 33.1373 54.2023L33.8837 57.0787C33.0179 57.4682 32.1074 57.663 31.1371 57.663C29.7937 57.663 28.7787 57.3034 28.0921 56.5843C27.4054 55.8502 27.0621 54.8015 27.0621 53.4083V49.1686H25.3157Z" fill="#163A5F"/>
<path d="M36.1077 51.4454C36.9735 50.7862 38.1527 50.4566 39.6454 50.4566C40.5112 50.4566 41.3769 50.5765 42.2427 50.8012V50.5165C42.2427 49.9323 42.0486 49.4978 41.6605 49.2281C41.2874 48.9585 40.6903 48.8236 39.8544 48.8236C38.8394 48.8236 37.6751 49.1083 36.3764 49.6626L35.5405 47.2356C37.1078 46.5165 38.705 46.157 40.332 46.157C41.974 46.157 43.2428 46.5465 44.1235 47.3105C45.0041 48.0896 45.452 49.1682 45.452 50.5615V57.4379H42.4218L42.3621 56.0896C41.362 57.0933 40.1081 57.5877 38.5856 57.5877C37.4362 57.5877 36.5108 57.2731 35.8241 56.6439C35.1375 55.9997 34.7942 55.1607 34.7942 54.142C34.7942 53.0034 35.242 52.1045 36.1077 51.4454ZM38.1677 53.9922C38.1677 54.7862 38.6752 55.1907 39.6753 55.1907C40.3918 55.1907 40.9888 54.9959 41.4814 54.5914C41.974 54.172 42.2427 53.6626 42.3024 53.0484C41.4516 52.8087 40.7351 52.6888 40.1081 52.6888C38.8095 52.6888 38.1677 53.1233 38.1677 53.9922Z" fill="#163A5F"/>
<path d="M46.781 49.1686V46.3971H48.6021L48.6618 43.7454H52.0353V46.3971H54.7818V49.1686H52.0353V53.0637C52.0353 54.0225 52.4532 54.5019 53.2742 54.5019C53.6772 54.5019 54.125 54.3971 54.6027 54.2023L55.349 57.0787C54.4833 57.4682 53.5727 57.663 52.6025 57.663C51.2591 57.663 50.244 57.3034 49.5574 56.5843C48.8708 55.8502 48.5274 54.8015 48.5274 53.4083V49.1686H46.781Z" fill="#163A5F"/>
<path d="M56.9458 46.3972H60.4387V52.3747C60.4387 53.8129 61.0507 54.547 62.2896 54.547C62.9762 54.547 63.4987 54.3373 63.8718 53.9028C64.2599 53.4684 64.454 52.8991 64.454 52.165V46.3972H67.9469V57.4534H64.7525L64.7078 55.9553C63.7375 57.0639 62.5135 57.6332 61.0656 57.6332C59.8118 57.6332 58.8117 57.2287 58.0653 56.4347C57.319 55.6407 56.9458 54.592 56.9458 53.3036V46.3972V46.3972Z" fill="#163A5F"/>
<path d="M69.843 56.1949L71.082 53.8129C72.3955 54.5919 73.6345 54.9664 74.7689 54.9664C75.7392 54.9664 76.2318 54.6968 76.2318 54.1724C76.2318 53.723 75.6197 53.3634 74.3808 53.0788C72.9777 52.7492 71.9626 52.2998 71.3059 51.7305C70.664 51.1612 70.3356 50.4121 70.3356 49.4833C70.3356 48.4795 70.7088 47.6855 71.4551 47.1013C72.2164 46.502 73.2762 46.2024 74.6495 46.2024C76.3362 46.2024 77.9036 46.6518 79.3216 47.5357L78.0827 49.8279C77.6647 49.5432 77.1572 49.3035 76.5303 49.1237C75.9183 48.944 75.3511 48.8391 74.8286 48.8391C73.9778 48.8391 73.5598 49.0638 73.5598 49.5282C73.5598 49.7679 73.6942 49.9777 73.9479 50.1275C74.2166 50.2773 74.7241 50.4421 75.4555 50.6219C78.1723 51.2361 79.5306 52.4196 79.5306 54.1575C79.5306 55.2361 79.0977 56.09 78.2469 56.7342C77.3811 57.3634 76.2318 57.6781 74.7988 57.6781C73.0225 57.6781 71.3656 57.1837 69.843 56.1949Z" fill="#163A5F"/>
</svg>
