<svg width="123" height="50" viewBox="0 0 123 50" fill="none" xmlns="http://www.w3.org/2000/svg">
<g clip-path="url(#clip0_1_2)">
<path d="M83.3081 4.4157C80.9497 3.7865 78.2479 4.74529 76.8 6.70779C75.994 7.81639 75.576 9.1497 75.4417 10.513C75.3372 11.5917 75.4417 12.7452 75.9641 13.6741C76.3224 14.3183 76.8448 14.8426 77.4269 15.2771C79.0092 16.4606 81.0542 16.9849 83.0096 16.7303C85.935 16.3557 89.756 13.764 88.816 10.3482C88.159 7.9662 85.711 5.0599 83.3081 4.4157Z" fill="#1EA765"/>
<path d="M81.8896 9.2395C80.9044 9.2395 80.0984 8.4306 80.0984 7.4418C80.0984 6.453 80.9044 5.644 81.8896 5.644C82.8748 5.644 83.6808 6.453 83.6808 7.4418C83.6808 8.4455 82.8748 9.2395 81.8896 9.2395Z" fill="#163A5F"/>
<path d="M81.6362 7.4865C81.3078 7.1719 81.3078 6.6476 81.6362 6.318C81.9646 6.0034 82.487 6.0034 82.8005 6.318C83.1289 6.6326 83.1289 7.1569 82.8005 7.4865C82.4721 7.8011 81.9497 7.8011 81.6362 7.4865Z" fill="white"/>
<path d="M69.7246 5.5243C68.5753 6.0786 67.5155 6.8427 66.6497 7.7865C66.4258 8.0262 66.2169 8.2809 65.9034 8.4007C65.6049 8.5206 65.2018 8.4457 65.0675 8.146C64.9779 7.9513 65.0227 7.7415 65.0824 7.5318C65.5302 6.0636 66.6945 4.9251 67.8887 3.9662C69.859 2.3932 72.4115 4.2659 69.7246 5.5243Z" fill="#21BF73"/>
<path d="M80.6364 2.27341C81.9351 2.40821 83.1889 2.79771 84.3382 3.41201C84.6218 3.56181 84.9204 3.74161 85.249 3.75651C85.577 3.77151 85.935 3.56181 85.98 3.23221C85.995 3.02251 85.891 2.82771 85.756 2.64791C84.8308 1.37451 83.3382 0.670406 81.8753 0.161006C79.4722 -0.707894 77.6213 1.94381 80.6364 2.27341Z" fill="#21BF73"/>
<path d="M83.0842 19.8464C83.2931 19.8015 103.131 15.5168 103.131 15.5168C103.131 15.5168 110.803 15.5168 114.386 15.8614C119.565 16.3558 120.386 17.5693 120.207 18.0637C119.521 20.0112 103.176 25.1498 103.176 25.1498L80.5615 24.925L83.0842 19.8464Z" fill="#FD5E53"/>
<path d="M112.714 18.8727C112.505 18.7528 112.221 18.6629 112.057 18.8277C111.997 18.8876 111.967 18.9775 111.952 19.0674C111.729 19.8914 111.654 20.7453 111.743 21.5693C111.758 21.794 111.818 22.0337 111.997 22.1686C112.146 22.2584 112.341 22.2584 112.505 22.2285C113.176 22.1386 113.818 21.9438 114.43 21.6592C115.311 21.2397 113.191 19.1723 112.714 18.8727Z" fill="white"/>
<path d="M90.294 22.3186C90.503 22.4384 90.801 22.5133 90.951 22.3335C91.01 22.2586 91.025 22.1837 91.055 22.0938C91.234 21.2699 91.264 20.4009 91.145 19.577C91.115 19.3523 91.055 19.1126 90.861 18.9927C90.712 18.9028 90.518 18.9178 90.354 18.9627C89.697 19.0826 89.055 19.3073 88.458 19.6219C87.592 20.0564 89.801 22.0489 90.294 22.3186Z" fill="white"/>
<path d="M99.011 20.5205C99.22 20.6403 99.519 20.7152 99.668 20.5354C99.728 20.4605 99.743 20.3856 99.773 20.2957C99.952 19.4718 99.982 18.6029 99.862 17.7789C99.832 17.5542 99.773 17.3145 99.579 17.1946C99.429 17.1047 99.235 17.1197 99.071 17.1646C98.414 17.2845 97.772 17.5092 97.175 17.8238C96.31 18.2733 98.519 20.2508 99.011 20.5205Z" fill="white"/>
<path d="M95.071 21.8688C94.892 21.704 94.638 21.5542 94.444 21.689C94.369 21.7339 94.325 21.8238 94.295 21.8987C93.907 22.6478 93.668 23.4718 93.563 24.3257C93.533 24.5504 93.533 24.8051 93.698 24.9549C93.817 25.0748 94.011 25.1047 94.19 25.1197C94.862 25.1647 95.534 25.1197 96.19 24.9549C97.116 24.7302 95.489 22.2583 95.071 21.8688Z" fill="white"/>
<path d="M103.952 21.2096C103.743 21.0897 103.459 20.9998 103.295 21.1646C103.236 21.2246 103.206 21.3145 103.191 21.4043C102.967 22.2283 102.892 23.0823 102.982 23.9062C102.997 24.1309 103.056 24.3706 103.236 24.5055C103.385 24.5954 103.579 24.5954 103.743 24.5654C104.415 24.4755 105.057 24.2808 105.669 23.9961C106.564 23.6066 104.445 21.5092 103.952 21.2096Z" fill="white"/>
<path d="M106.474 18.5876C106.683 18.7074 106.982 18.7823 107.131 18.6026C107.191 18.5426 107.206 18.4528 107.236 18.3629C107.415 17.5389 107.445 16.67 107.325 15.846C107.295 15.6213 107.236 15.3816 107.042 15.2617C106.892 15.1719 106.698 15.1868 106.534 15.2318C105.877 15.3516 105.236 15.5764 104.638 15.891C103.773 16.3254 105.982 18.3179 106.474 18.5876Z" fill="white"/>
<path d="M65.8432 17.135C65.6342 13.8092 66.0372 9.6744 69.142 7.7418C71.0974 6.5283 73.6648 6.2736 75.6949 7.1275C77.1279 7.7268 78.3071 9.0901 79.0684 10.738C83.0837 10.004 86.129 9.8991 86.129 9.8991C86.129 9.8991 99.876 8.7755 108.041 8.1013C108.206 7.1425 109.25 6.1687 111.788 5.3747C112.997 4.9852 114.102 5.0751 115.087 5.4197C116.102 5.7792 117.027 7.1725 117.908 10.0639C118.505 12.0264 110.101 15.4272 100.981 18.0489C92.667 20.4459 84.0092 20.1313 83.5763 20.4309C83.1882 20.7006 88.965 25.7493 100.981 24.2362C113.997 22.5882 120.177 18.0489 120.177 18.0489C120.177 18.0489 120.475 22.1538 119.072 23.1575C116.654 24.8804 114.251 26.8429 107.594 29.0901C106.235 29.5545 103.862 30.2886 100.817 30.783C100.563 30.8279 100.369 30.8579 100.22 30.8729C100.16 30.768 100.07 30.6032 99.891 30.4684C99.578 30.2287 99.249 30.1987 99.13 30.1987C98.623 30.1987 98.115 30.1987 97.593 30.1987C97.593 29.7193 97.593 29.2399 97.608 28.7455C97.608 28.6556 97.593 28.2362 97.264 27.9066C96.891 27.5171 96.413 27.532 96.339 27.532C95.249 27.532 94.144 27.532 93.055 27.532C92.98 27.532 92.488 27.562 92.129 27.9665C91.831 28.3111 91.831 28.7006 91.831 28.8054C91.831 29.2699 91.831 29.7343 91.831 30.1987C91.607 30.1987 91.383 30.1987 91.159 30.1987C91.055 30.1987 90.696 30.2137 90.383 30.4983C89.98 30.8429 89.965 31.3523 89.965 31.4272C89.965 31.6669 89.965 31.8916 89.965 32.1313C89.652 31.7418 88.219 29.8691 84.5913 29.974C83.5464 30.0039 81.8 30.1388 79.755 31.0077C79.7251 30.9178 79.6057 30.5882 79.2624 30.3785C79.0087 30.2137 78.74 30.1987 78.6355 30.1987C78.0533 30.1837 75.068 30.1687 70.978 30.1987C69.754 30.1987 69.1271 30.5732 68.336 31.0377C67.2015 31.6968 66.5 32.5657 66.1268 33.135C66.1268 33.0451 66.1268 32.9553 66.1268 32.8504C66.1268 29.165 66.1119 25.4796 66.1119 21.7792C66.082 21.4796 66.0522 20.9702 66.0074 20.326C65.9029 18.5882 65.8581 17.2549 65.8432 17.135Z" fill="#21BF73"/>
<path d="M90.98 9.5243C90.98 9.5243 90.07 10.573 90.055 11.2022C90.055 11.5019 90.159 11.8614 90.339 12.0861C90.518 12.3109 90.816 12.4607 91.115 12.4007C91.398 12.3408 91.592 12.1011 91.697 11.8165C91.801 11.5468 91.727 11.0075 91.786 10.7228C91.98 9.794 92.682 9.3745 92.682 9.3745L90.98 9.5243Z" fill="#52DA98"/>
<path d="M96.354 9.075C96.354 9.075 95.877 10.3184 95.921 10.9476C95.936 11.2622 96.175 11.8615 96.459 11.9813C96.578 12.0413 96.713 12.0413 96.832 12.0113C96.936 11.9963 97.056 11.9813 97.145 11.9214C97.339 11.8165 97.429 11.5768 97.474 11.3521C97.504 11.1274 97.384 10.4083 97.384 10.1686C97.399 9.5544 98.071 8.9102 98.071 8.9102L96.354 9.075Z" fill="#52DA98"/>
<path d="M101.4 8.655C101.057 9.2093 100.803 9.449 100.698 10.0782C100.639 10.4677 100.743 11.2168 101.027 11.4865C101.206 11.6513 101.489 11.6962 101.713 11.6063C101.937 11.5164 102.116 11.3067 102.206 11.082C102.325 10.7524 102.31 10.3928 102.325 10.0483C102.355 9.6438 102.445 9.2393 102.728 8.9546C102.893 8.7899 103.34 8.4902 103.34 8.4902L101.4 8.655Z" fill="#52DA98"/>
<path d="M72.6206 12.97C71.6354 12.97 70.8293 12.161 70.8293 11.1723C70.8293 10.1835 71.6354 9.3745 72.6206 9.3745C73.6057 9.3745 74.4118 10.1835 74.4118 11.1723C74.4118 12.176 73.6207 12.97 72.6206 12.97Z" fill="#163A5F"/>
<path d="M72.3667 11.217C72.0383 10.9024 72.0383 10.378 72.3667 10.0485C72.6951 9.73379 73.2175 9.73379 73.531 10.0485C73.8594 10.3631 73.8594 10.8874 73.531 11.217C73.2175 11.5316 72.6951 11.5316 72.3667 11.217Z" fill="white"/>
<path d="M112.445 8.59579C112.759 9.15009 112.908 9.77929 112.863 10.4085C112.848 10.7381 112.699 11.1426 112.37 11.1726C112.057 11.2025 111.848 10.8729 111.729 10.5883C111.549 10.1988 111.4 9.80929 111.251 9.40479C110.878 8.37109 111.758 7.38229 112.445 8.59579Z" fill="#163A5F"/>
<path d="M113.863 8.356C113.908 8.9852 114.117 9.5994 114.49 10.1088C114.684 10.3784 115.028 10.6331 115.311 10.4833C115.58 10.3335 115.58 9.944 115.535 9.6443C115.475 9.2249 115.401 8.8054 115.296 8.4009C115.058 7.3073 113.774 6.9627 113.863 8.356Z" fill="#163A5F"/>
<path d="M65.7542 46.0339C65.7542 45.1201 66.0825 44.356 66.7244 43.7418C66.2467 43.2774 66.0228 42.6781 66.0228 41.959C66.0228 40.8654 66.5303 39.9815 67.5304 39.2923C66.8737 38.4834 66.5453 37.4796 66.5453 36.3111C66.5453 34.8129 67.0379 33.6144 68.023 32.7305C69.0082 31.8467 70.3516 31.3972 72.0383 31.3972H78.6659V34.0639H76.6507C77.2329 34.738 77.5314 35.577 77.5314 36.5658C77.5314 37.944 77.0239 39.0377 76.0238 39.8616C75.0237 40.6856 73.6952 41.1051 72.0383 41.1051C71.1726 41.1051 70.3815 40.9852 69.6799 40.7455C69.3515 40.9403 69.1873 41.195 69.1873 41.4946C69.1873 41.8392 69.4262 42.0789 69.8889 42.2287C70.3815 42.3635 71.3219 42.4534 72.725 42.5133C74.755 42.5882 76.2477 42.8879 77.203 43.4422C78.1584 43.9965 78.636 44.8204 78.636 45.9141C78.636 47.1126 78.0837 48.0564 76.9791 48.7305C75.8745 49.4047 74.352 49.7343 72.4115 49.7343C70.2322 49.7343 68.5903 49.4197 67.4558 48.7905C66.3214 48.1463 65.7542 47.2324 65.7542 46.0339ZM69.7844 36.3111C69.7844 36.9553 69.9934 37.4796 70.4113 37.8991C70.8293 38.3186 71.3517 38.5283 71.9936 38.5283C72.6503 38.5283 73.1877 38.3186 73.6057 37.8991C74.0236 37.4796 74.2326 36.9553 74.2326 36.3111C74.2326 35.6819 74.0236 35.1575 73.6057 34.738C73.1877 34.3186 72.6503 34.1088 71.9936 34.1088C71.3517 34.1088 70.8143 34.3186 70.4113 34.738C69.9934 35.1575 69.7844 35.6819 69.7844 36.3111ZM68.7097 45.7043C68.7097 46.6032 69.874 47.0526 72.2025 47.0526C74.3371 47.0526 75.3969 46.7231 75.3969 46.0639C75.3969 45.7643 75.173 45.5395 74.7252 45.4047C74.2774 45.2549 73.5161 45.18 72.4563 45.165C71.0681 45.1201 69.9486 45.0152 69.0828 44.8204C68.844 45.1201 68.7097 45.4047 68.7097 45.7043Z" fill="#21BF73"/>
<path d="M80.5018 36.4454C81.3675 35.7862 82.5468 35.4566 84.0394 35.4566C84.9052 35.4566 85.756 35.5765 86.637 35.8012V35.5165C86.637 34.9323 86.443 34.4978 86.055 34.2281C85.681 33.9585 85.084 33.8236 84.2484 33.8236C83.2334 33.8236 82.0691 34.1083 80.7705 34.6626L79.9346 32.2356C81.5019 31.5165 83.0991 31.157 84.7261 31.157C86.368 31.157 87.637 31.5465 88.517 32.3105C89.398 33.0896 89.846 34.1682 89.846 35.5765V42.4678H86.816L86.756 41.1195C85.756 42.1233 84.5022 42.6177 82.9796 42.6177C81.8303 42.6177 80.9197 42.303 80.2182 41.6738C79.5316 41.0296 79.1882 40.1907 79.1882 39.172C79.1882 38.0034 79.636 37.1045 80.5018 36.4454ZM82.5617 38.9922C82.5617 39.7862 83.0692 40.1907 84.0693 40.1907C84.7858 40.1907 85.383 39.9959 85.875 39.5914C86.368 39.172 86.637 38.6626 86.696 38.0484C85.846 37.8087 85.129 37.6888 84.5022 37.6888C83.2035 37.6888 82.5617 38.1233 82.5617 38.9922Z" fill="#21BF73"/>
<path d="M91.175 34.1686V31.3971H92.996L93.07 28.7454H96.444V31.412H99.19V34.1836H96.444V38.0937C96.444 39.0525 96.862 39.5319 97.683 39.5319C98.086 39.5319 98.533 39.427 99.011 39.2323L99.757 42.1087C98.892 42.4982 97.981 42.6929 97.011 42.6929C95.668 42.6929 94.653 42.3334 93.966 41.6143C93.279 40.8802 92.936 39.8315 92.936 38.4383V34.1985H91.175V34.1686Z" fill="#21BF73"/>
<path d="M102.161 32.7307C103.295 31.652 104.773 31.1277 106.624 31.1277C108.46 31.1277 109.938 31.667 111.072 32.7307C112.222 33.8093 112.789 35.2026 112.789 36.9404C112.789 38.6633 112.222 40.0715 111.072 41.1502C109.938 42.2288 108.46 42.7532 106.624 42.7532C104.773 42.7532 103.28 42.2138 102.146 41.1502C101.012 40.0715 100.444 38.6782 100.444 36.9404C100.444 35.2026 101.012 33.8093 102.161 32.7307ZM104.654 38.9779C105.161 39.4872 105.818 39.7569 106.624 39.7569C107.43 39.7569 108.072 39.5022 108.579 38.9779C109.087 38.4685 109.326 37.7794 109.326 36.9404C109.326 36.1165 109.072 35.4423 108.579 34.9179C108.072 34.3936 107.43 34.1239 106.624 34.1239C105.818 34.1239 105.161 34.3936 104.654 34.9179C104.146 35.4273 103.907 36.1015 103.907 36.9404C103.892 37.7794 104.146 38.4535 104.654 38.9779Z" fill="#21BF73"/>
<path d="M118.072 31.4115L118.117 32.9097C118.968 31.816 120.087 31.2617 121.505 31.2617C122.043 31.2617 122.565 31.3516 123.073 31.5164L122.297 34.7524C121.819 34.6025 121.371 34.5426 120.923 34.5426C119.222 34.5426 118.371 35.5763 118.371 37.6587V42.4827H114.878V31.4115H118.072Z" fill="#21BF73"/>
<path d="M-0.0732117 41.1949L1.16569 38.8129C2.47919 39.5919 3.71819 39.9664 4.85259 39.9664C5.82289 39.9664 6.31539 39.6968 6.31539 39.1724C6.31539 38.723 5.70339 38.3634 4.46449 38.0788C3.06139 37.7492 2.04639 37.2998 1.38959 36.7305C0.747689 36.1612 0.419289 35.4121 0.419289 34.4833C0.419289 33.4795 0.792489 32.6855 1.53889 32.1013C2.30009 31.502 3.35989 31.2024 4.73319 31.2024C6.41989 31.2024 7.98719 31.6518 9.40529 32.5357L8.16639 34.8279C7.74839 34.5432 7.24089 34.3035 6.61399 34.1237C6.00199 33.944 5.43479 33.8391 4.91229 33.8391C4.06149 33.8391 3.64349 34.0638 3.64349 34.5282C3.64349 34.7679 3.77789 34.9777 4.03159 35.1275C4.30029 35.2773 4.80779 35.4421 5.53919 35.6219C8.25589 36.2361 9.61429 37.4196 9.61429 39.1575C9.61429 40.2361 9.18139 41.09 8.33059 41.7342C7.46479 42.3634 6.31539 42.6781 4.88249 42.6781C3.12109 42.6781 1.46419 42.1837 -0.0732117 41.1949Z" fill="#DEE0E2"/>
<path d="M10.3157 34.1686V31.3971H12.1367L12.1965 28.7454H15.5699V31.3971H18.3164V34.1686H15.5699V38.0637C15.5699 39.0225 15.9879 39.5019 16.8088 39.5019C17.2119 39.5019 17.6597 39.3971 18.1373 39.2023L18.8837 42.0787C18.0179 42.4682 17.1074 42.663 16.1371 42.663C14.7937 42.663 13.7787 42.3034 13.0921 41.5843C12.4054 40.8502 12.0621 39.8015 12.0621 38.4083V34.1686H10.3157Z" fill="#DEE0E2"/>
<path d="M21.1077 36.4454C21.9735 35.7862 23.1527 35.4566 24.6454 35.4566C25.5112 35.4566 26.3769 35.5765 27.2427 35.8012V35.5165C27.2427 34.9323 27.0486 34.4978 26.6605 34.2281C26.2874 33.9585 25.6903 33.8236 24.8544 33.8236C23.8394 33.8236 22.6751 34.1083 21.3764 34.6626L20.5405 32.2356C22.1078 31.5165 23.705 31.157 25.332 31.157C26.974 31.157 28.2428 31.5465 29.1235 32.3105C30.0041 33.0896 30.452 34.1682 30.452 35.5615V42.4379H27.4218L27.3621 41.0896C26.362 42.0933 25.1081 42.5877 23.5856 42.5877C22.4362 42.5877 21.5108 42.2731 20.8241 41.6439C20.1375 40.9997 19.7942 40.1607 19.7942 39.142C19.7942 38.0034 20.242 37.1045 21.1077 36.4454ZM23.1677 38.9922C23.1677 39.7862 23.6752 40.1907 24.6753 40.1907C25.3918 40.1907 25.9888 39.9959 26.4814 39.5914C26.974 39.172 27.2427 38.6626 27.3024 38.0484C26.4516 37.8087 25.7351 37.6888 25.1081 37.6888C23.8095 37.6888 23.1677 38.1233 23.1677 38.9922Z" fill="#DEE0E2"/>
<path d="M31.781 34.1686V31.3971H33.6021L33.6618 28.7454H37.0353V31.3971H39.7818V34.1686H37.0353V38.0637C37.0353 39.0225 37.4532 39.5019 38.2742 39.5019C38.6772 39.5019 39.125 39.3971 39.6027 39.2023L40.349 42.0787C39.4833 42.4682 38.5727 42.663 37.6025 42.663C36.2591 42.663 35.244 42.3034 34.5574 41.5843C33.8708 40.8502 33.5274 39.8015 33.5274 38.4083V34.1686H31.781Z" fill="#DEE0E2"/>
<path d="M41.9458 31.3972H45.4387V37.3747C45.4387 38.8129 46.0507 39.547 47.2896 39.547C47.9762 39.547 48.4987 39.3373 48.8718 38.9028C49.2599 38.4684 49.454 37.8991 49.454 37.165V31.3972H52.9469V42.4534H49.7525L49.7078 40.9553C48.7375 42.0639 47.5135 42.6332 46.0656 42.6332C44.8118 42.6332 43.8117 42.2287 43.0653 41.4347C42.319 40.6407 41.9458 39.592 41.9458 38.3036V31.3972Z" fill="#DEE0E2"/>
<path d="M54.843 41.1949L56.082 38.8129C57.3955 39.5919 58.6345 39.9664 59.7689 39.9664C60.7392 39.9664 61.2318 39.6968 61.2318 39.1724C61.2318 38.723 60.6197 38.3634 59.3808 38.0788C57.9777 37.7492 56.9626 37.2998 56.3059 36.7305C55.664 36.1612 55.3356 35.4121 55.3356 34.4833C55.3356 33.4795 55.7088 32.6855 56.4551 32.1013C57.2164 31.502 58.2762 31.2024 59.6495 31.2024C61.3362 31.2024 62.9036 31.6518 64.3216 32.5357L63.0827 34.8279C62.6647 34.5432 62.1572 34.3035 61.5303 34.1237C60.9183 33.944 60.3511 33.8391 59.8286 33.8391C58.9778 33.8391 58.5598 34.0638 58.5598 34.5282C58.5598 34.7679 58.6942 34.9777 58.9479 35.1275C59.2166 35.2773 59.7241 35.4421 60.4555 35.6219C63.1723 36.2361 64.5306 37.4196 64.5306 39.1575C64.5306 40.2361 64.0977 41.09 63.2469 41.7342C62.3811 42.3634 61.2318 42.6781 59.7988 42.6781C58.0225 42.6781 56.3656 42.1837 54.843 41.1949Z" fill="#DEE0E2"/>
</g>
<defs>
<clipPath id="clip0_1_2">
<rect width="123" height="50" fill="white"/>
</clipPath>
</defs>
</svg>
